<?xml version="1.0" encoding="UTF-8"?>
<!DOCTYPE svg PUBLIC "-//W3C//DTD SVG 1.1//EN" "http://www.w3.org/Graphics/SVG/1.1/DTD/svg11.dtd">
<!-- Creator: CorelDRAW X8 -->
<svg xmlns="http://www.w3.org/2000/svg" xml:space="preserve" width="8.4666mm" height="2.805mm" version="1.1" style="shape-rendering:geometricPrecision; text-rendering:geometricPrecision; image-rendering:optimizeQuality; fill-rule:evenodd; clip-rule:evenodd"
viewBox="0 0 252 83"
 xmlns:xlink="http://www.w3.org/1999/xlink">
 <defs>
  <style type="text/css">
   <![CDATA[
    .fil0 {fill:#FEFEFE}
    .fil1 {fill:white}
   ]]>
  </style>
 </defs>
 <g id="Capa_x0020_1">
  <metadata id="CorelCorpID_0Corel-Layer"/>
  <g id="_2228389110304">
   <path class="fil0" d="M16 25l0 23c1,3 2,4 4,5 2,0 15,-9 18,-10 3,-2 6,-4 9,-6 3,-1 6,-3 9,-5 0,-3 0,-6 1,-9 -2,1 -22,12 -25,14 -2,1 -7,4 -9,5l0 -12c2,0 3,-1 4,-2 4,-2 25,-14 27,-14 2,0 10,0 11,2 0,2 0,11 0,13 -1,8 1,18 -2,24 -1,2 -2,3 -3,4 -1,2 -2,3 -3,4 -4,4 -16,13 -20,14 -2,0 -7,-5 -12,2 2,3 8,6 12,6 4,0 10,-3 13,-5 2,-2 3,-3 5,-4 1,-1 1,-2 2,-2 9,-8 16,-15 16,-28l0 -33c0,-2 -1,-2 -1,-3 -4,0 -10,-1 -15,-2 -8,-2 -4,-2 -14,3 -3,2 -6,4 -9,6 -6,3 -12,7 -18,10z"/>
   <path class="fil0" d="M1 8c0,3 -1,5 -1,8l0 29c0,12 7,20 16,27 4,3 3,4 15,-3l10 -6c7,-5 16,-7 16,-18l-35 19c-3,1 -5,-2 -7,-3 -3,-4 -7,-9 -7,-16l0 -30c5,0 35,-6 37,-13 -3,0 -5,-2 -8,-2 -2,0 -6,2 -8,2 -6,2 -23,6 -28,6z"/>
   <path class="fil0" d="M164 41l0 -9 3 0c3,0 5,1 5,4 0,4 -4,5 -8,5zm-6 15l6 0 0 -10c9,0 15,-2 15,-11 0,-10 -14,-9 -21,-9l0 30z"/>
   <path class="fil1" d="M234 56l18 0 0 -4c-1,-2 -3,-1 -11,-1l0 -7 10 0 0 -6 -10 0 0 -6 11 0 0 -5c-1,-1 -4,-1 -18,-1l0 30z"/>
   <path class="fil0" d="M191 41l0 -9 2 0c3,0 5,1 5,4 0,4 -3,5 -7,5zm-7 15l7 0 0 -10c3,0 7,0 10,-2 6,-3 7,-18 -7,-18l-10 0 0 30z"/>
   <path class="fil1" d="M118 41c1,-3 2,-8 2,-11 6,0 9,-1 9,5 0,6 -7,6 -11,6zm-7 15l4 0c0,-1 2,-10 3,-12l5 0c0,4 3,9 3,12l4 0c0,-2 -1,-4 -2,-6 -1,-2 -2,-5 -2,-7 10,-2 11,-17 -2,-17 -8,0 -6,-1 -8,7l-5 23z"/>
   <path class="fil1" d="M211 56l18 0 0 -4c0,-1 0,-1 -1,-1l-11 0 0 -25 -6 0 0 30z"/>
   <path class="fil1" d="M94 42l2 -10c1,-2 0,-2 4,-2 4,0 5,1 5,5 0,6 -5,7 -11,7zm-7 14l4 0c0,-4 2,-7 2,-11 7,0 16,0 16,-11 0,-8 -8,-8 -14,-8 -2,0 -2,3 -3,7 -1,3 -1,5 -2,8 -1,5 -2,10 -3,15z"/>
   <path class="fil1" d="M134 56c3,0 6,0 9,0 6,0 7,2 7,-3l-11 0c0,-3 2,-7 2,-10l11 0c0,-2 0,-2 1,-4l-11 0c0,-3 1,-6 1,-9 14,0 13,1 13,-4 -16,0 -15,-1 -16,3l-2 12c-2,5 -3,10 -4,15z"/>
  </g>
 </g>
</svg>
